<svg width="24" height="24" viewBox="0 0 24 24" fill="none" xmlns="http://www.w3.org/2000/svg">
<path d="M23 2.99975C22.0424 3.67528 20.9821 4.19218 19.86 4.51975C19.2577 3.83736 18.4573 3.34674 17.567 3.12391C16.6767 2.90108 15.7395 2.95724 14.8821 3.28491C14.0248 3.61259 13.2884 4.19609 12.773 4.95355C12.2576 5.711 11.9877 6.61221 12 7.52975V8.63975C10.2426 8.6805 8.50127 8.29732 6.93101 7.52051C5.36074 6.7437 3.99922 5.59173 2.939 4.14975C2.939 4.14975 -1.061 13.3197 8.999 17.9997C6.94053 19.3967 4.48716 20.0989 2 19.9997C12.06 25.9997 23 19.9997 23 7.49975C22.9991 7.22143 22.9723 6.94376 22.92 6.66975C23.9406 5.66341 24.6608 4.39279 25 2.99975" stroke="#1DA1F2" stroke-width="2" stroke-linecap="round" stroke-linejoin="round"/>
</svg>